<svg width="79" height="79" viewBox="0 0 79 79" fill="none" xmlns="http://www.w3.org/2000/svg">
<ellipse cx="39.5" cy="39.0183" rx="39.5" ry="39.0183" fill="#DAB564"/>
<path d="M43.0725 23.6821H33.9322C32.3979 23.6821 31.0897 24.6688 30.603 26.0427C30.6674 26.0416 30.7318 26.0403 30.7965 26.0403H46.2082C46.2729 26.0403 46.3372 26.0416 46.4017 26.0427C45.915 24.6688 44.6068 23.6821 43.0725 23.6821Z" fill="white"/>
<path d="M50.3285 47.3151V48.5727C50.3285 50.5984 48.6918 52.2406 46.6728 52.2406H45.3826C45.4087 52.1074 45.4227 51.9699 45.4227 51.8292V48.119H44.2461C41.5469 48.119 39.2578 46.3239 38.5023 43.8611C37.889 45.8604 36.2651 47.4195 34.2315 47.9357L35.9679 49.1303C36.726 49.6519 37.614 49.9125 38.5022 49.9125C39.004 49.9125 39.5059 49.8291 39.9843 49.6627V51.8292C39.9843 52.0272 40.0119 52.2188 40.0626 52.4009C39.2195 52.7281 38.6027 53.524 38.5767 54.4765C38.5412 55.7765 39.5809 56.8416 40.8687 56.8416H46.6728C51.2243 56.8416 54.9142 53.1395 54.9142 48.5727V43.8216C53.729 45.3588 52.1493 46.5745 50.3285 47.3151Z" fill="white"/>
<path d="M54.9142 18.0858C54.9142 17.1426 54.1522 16.3782 53.2123 16.3782H52.0304C51.0905 16.3782 50.3286 17.1426 50.3286 18.0858V19.7289H54.9143L54.9142 18.0858Z" fill="white"/>
<path d="M50.3285 22.101V26.8442C52.1493 27.5847 53.7289 28.8004 54.9142 30.3376V22.101H50.3285Z" fill="white"/>
<path d="M46.2082 28.4125H30.7965C26.0334 28.4125 22.1582 32.3005 22.1582 37.0796C22.1582 41.8588 26.0334 45.7468 30.7965 45.7468H32.7586C34.7678 45.7468 36.4023 44.1068 36.4023 42.0909C36.4023 41.383 36.9763 40.8072 37.6817 40.8072H39.3228C40.0283 40.8072 40.6022 41.3831 40.6022 42.0909C40.6022 44.1068 42.2367 45.7468 44.2459 45.7468H46.2081C50.9712 45.7468 54.8463 41.8588 54.8463 37.0796C54.8463 32.3005 50.9713 28.4125 46.2082 28.4125Z" fill="white"/>
</svg>
