<svg width="79" height="79" viewBox="0 0 79 79" fill="none" xmlns="http://www.w3.org/2000/svg">
<circle cx="39.5" cy="39.5" r="39.5" fill="#9CAFBB"/>
<path d="M23.445 48C20.3471 48 17.8654 47.0227 16 45.0682L19.048 42.1836C20.3471 43.4446 21.7378 44.0751 23.2201 44.0751C23.903 44.0751 24.4443 43.9254 24.8441 43.6259C25.2604 43.3106 25.4686 42.885 25.4686 42.3491C25.4686 41.8132 25.2188 41.3955 24.7191 41.096C24.2195 40.7965 23.5199 40.6467 22.6206 40.6467H20.5719L19.8724 38.2587L23.8947 34.8303H17.1992V31.1182H29.8407V34.4047L25.6685 37.7858C28.6831 38.4163 30.1905 39.9847 30.1905 42.491C30.1905 44.146 29.5576 45.478 28.2917 46.4868C27.0426 47.4956 25.427 48 23.445 48Z" fill="white"/>
<path d="M34.2737 47.669V34.8776H42.2933C43.9422 34.8776 45.1747 35.2638 45.9908 36.0362C46.5737 36.5563 46.8652 37.2499 46.8652 38.1168C46.8652 39.4409 46.1657 40.3945 44.7666 40.9777C45.6327 41.2457 46.2739 41.6319 46.6903 42.1363C47.1234 42.6249 47.3399 43.2949 47.3399 44.146C47.3399 45.2494 46.8902 46.1164 45.9908 46.7469C45.0914 47.3616 43.8339 47.669 42.2183 47.669H34.2737ZM38.8955 44.7608H40.8442C41.3939 44.7608 41.8186 44.6583 42.1184 44.4534C42.4348 44.2327 42.5931 43.9332 42.5931 43.5549C42.5931 43.2082 42.4348 42.9244 42.1184 42.7038C41.8186 42.4831 41.3772 42.3727 40.7943 42.3727H38.8955V44.7608ZM38.8955 39.9611H40.4945C41.0274 39.9611 41.4438 39.8586 41.7436 39.6537C42.0434 39.4488 42.1933 39.1729 42.1933 38.8261C42.1933 38.4951 42.0518 38.235 41.7686 38.0459C41.4855 37.841 41.0857 37.7385 40.5694 37.7385H38.8955V39.9611Z" fill="white"/>
<path d="M54.2282 47.669V35.2796L51.2802 35.9179L50.3558 32.3713L55.4774 31H59V47.669H54.2282Z" fill="white"/>
</svg>
