<svg width="80" height="79" viewBox="0 0 80 79" fill="none" xmlns="http://www.w3.org/2000/svg">
<circle cx="40.3633" cy="39.5" r="39.5" fill="#FFA299"/>
<path d="M34.1985 25.9149C34.199 25.4637 34.3784 25.0312 34.6974 24.7122C35.0164 24.3932 35.4489 24.2137 35.9001 24.2132H39.3033C40.6568 24.2117 41.9543 23.6734 42.9114 22.7164C43.8684 21.7594 44.4067 20.4618 44.4082 19.1084V17.4067H41.005V19.1084C41.0045 19.5595 40.825 19.992 40.506 20.311C40.187 20.63 39.7545 20.8095 39.3033 20.81H35.9001C34.5467 20.8115 33.2491 21.3498 32.2921 22.3068C31.3351 23.2639 30.7967 24.5614 30.7952 25.9149V27.6165H34.1985V25.9149Z" fill="white"/>
<path d="M41.005 25.9149C39.6515 25.9164 38.354 26.4547 37.397 27.4117C36.4399 28.3687 35.9016 29.6663 35.9001 31.0197V32.7214H39.3033V31.0197C39.3039 30.5686 39.4833 30.1361 39.8023 29.8171C40.1213 29.4981 40.5538 29.3186 41.005 29.3181H44.4082C45.7616 29.3166 47.0592 28.7783 48.0162 27.8212C48.9732 26.8642 49.5116 25.5667 49.5131 24.2132V22.5116H46.1098V24.2132C46.1093 24.6644 45.9299 25.0969 45.6109 25.4159C45.2919 25.7349 44.8594 25.9144 44.4082 25.9149H41.005Z" fill="white"/>
<path d="M53.7671 34.423H27.392C26.9407 34.423 26.5079 34.6023 26.1887 34.9214C25.8696 35.2405 25.6903 35.6733 25.6903 36.1246V41.2295C25.6919 43.1621 26.1051 45.0722 26.9025 46.8326C27.6998 48.5931 28.8631 50.1635 30.3147 51.4392H48.2926C49.249 50.5958 50.0834 49.6232 50.7717 48.5497L50.7872 48.5254C51.1348 47.9803 51.4431 47.4111 51.7097 46.8221C51.7173 46.8049 51.7252 46.7879 51.7329 46.7708C51.7967 46.6264 51.8605 46.4811 51.9194 46.3344H53.7671C55.3467 46.3344 56.8615 45.7069 57.9785 44.59C59.0954 43.4731 59.7228 41.9582 59.7228 40.3787C59.7228 38.7991 59.0954 37.2843 57.9785 36.1674C56.8615 35.0505 55.3467 34.423 53.7671 34.423ZM46.1098 46.3344C45.7733 46.3344 45.4443 46.2346 45.1645 46.0476C44.8846 45.8606 44.6665 45.5949 44.5377 45.2839C44.409 44.973 44.3752 44.6309 44.4409 44.3008C44.5066 43.9707 44.6686 43.6675 44.9066 43.4295C45.1446 43.1915 45.4478 43.0295 45.7779 42.9638C46.1079 42.8982 46.4501 42.9319 46.761 43.0607C47.072 43.1894 47.3377 43.4075 47.5247 43.6874C47.7117 43.9672 47.8115 44.2962 47.8115 44.6327C47.8115 45.084 47.6322 45.5169 47.3131 45.836C46.9939 46.1551 46.5611 46.3344 46.1098 46.3344ZM53.7671 42.9311H52.8062C52.8783 42.3668 52.9151 41.7985 52.9163 41.2295V37.8263H53.7671C54.4441 37.8263 55.0933 38.0952 55.572 38.5738C56.0507 39.0525 56.3196 39.7017 56.3196 40.3787C56.3196 41.0556 56.0507 41.7049 55.572 42.1835C55.0933 42.6622 54.4441 42.9311 53.7671 42.9311Z" fill="white"/>
<path d="M27.392 58.2457H51.2147C52.5682 58.2442 53.8657 57.7059 54.8227 56.7489C55.7798 55.7918 56.3181 54.4943 56.3196 53.1409H22.2871C22.2886 54.4943 22.827 55.7918 23.784 56.7489C24.741 57.7059 26.0386 58.2442 27.392 58.2457Z" fill="white"/>
</svg>
