<svg width="112" height="72" viewBox="0 0 112 72" fill="none" xmlns="http://www.w3.org/2000/svg">
<path d="M86.0698 25.9065L78.5958 2.55868C78.107 1.0313 76.724 0 75.1655 0H66.8401C64.8447 0 63.2273 1.66905 63.2273 3.72816C63.2273 5.78726 64.8447 7.45631 66.8401 7.45631H72.5542L74.4935 13.5146H38.4758L37.932 12.5825H38.8411C40.8363 12.5825 42.4539 10.9135 42.4539 8.85437C42.4539 6.79526 40.8363 5.12621 38.8411 5.12621H27.5512C25.556 5.12621 23.9384 6.79526 23.9384 8.85437C23.9384 10.9135 25.556 12.5825 27.5512 12.5825H29.4987L32.3133 17.4077L28.2724 26.5445C20.7165 24.4236 12.4593 26.4888 6.59461 32.5407C-2.1964 41.6127 -2.20001 56.1192 6.59461 65.1949C19.5534 78.5678 41.5701 71.0719 44.5258 52.66H54.8857C55.9975 52.66 57.0472 52.1315 57.7321 51.2279L78.0004 24.4695L79.2044 28.2308C71.9991 32.0964 67.0661 39.8722 67.0661 48.8155C67.0661 61.5994 77.1449 72 89.5331 72C101.921 72 112 61.5994 112 48.8155C112 34.691 99.759 23.7104 86.0698 25.9065ZM36.8304 25.1522L48.526 45.2036H44.545C43.5282 38.661 39.8441 33.1277 34.8413 29.65L36.8304 25.1522ZM31.7892 36.5508C34.4317 38.6968 36.3686 41.7255 37.1795 45.2036H27.9624L31.7892 36.5508ZM22.4163 64.5397C14.0423 64.5397 7.22956 57.5094 7.22956 48.868C7.22956 39.1265 15.8207 31.6553 25.211 33.4667L19.056 47.3839C17.9647 49.8517 19.7169 52.6602 22.3427 52.6602H37.1512C35.5031 59.4748 29.5231 64.5397 22.4163 64.5397ZM55.2907 42.3428L42.8249 20.9706H71.4791L55.2907 42.3428ZM89.5328 64.5434C81.1286 64.5434 74.2915 57.4879 74.2915 48.8153C74.2915 43.1769 77.183 38.2245 81.5145 35.4475L86.1571 49.9508C86.6589 51.518 88.0708 52.5104 89.5868 52.5104C92.0446 52.5104 93.79 50.0242 93.0178 47.612L88.384 33.1363C97.2897 32.4478 104.774 39.7391 104.774 48.8153C104.774 57.4879 97.9371 64.5434 89.5328 64.5434Z" fill="#9CAFBB"/>
</svg>
