<svg width="80" height="78" viewBox="0 0 80 78" fill="none" xmlns="http://www.w3.org/2000/svg">
<path d="M56.2921 42.7582H60.1748L58.961 39.9996H55.0783L56.2921 42.7582Z" fill="#9CAFBB"/>
<path d="M53.8657 37.2411H57.7484L56.5346 34.4825H52.6519L53.8657 37.2411Z" fill="#9CAFBB"/>
<path d="M31.7234 9.22233C31.7199 10.4908 31.9679 11.7474 32.4533 12.9193C32.9387 14.0913 33.6516 15.1553 34.551 16.0499L39.1216 20.6205C40.1456 21.6479 41.3886 22.4302 42.7578 22.9091V19.3102C42.759 18.2131 43.1954 17.1613 43.9711 16.3856C44.7469 15.6099 45.7986 15.1735 46.8957 15.1723H51.0336C51.9915 15.1714 52.9197 15.5044 53.6586 16.114L69.7726 0H35.0532L31.6889 3.36532C31.7119 3.54301 31.7234 3.722 31.7234 3.90117V9.22233Z" fill="#9CAFBB"/>
<path d="M49.0089 26.2067L51.4365 31.7239H55.3192L52.8917 26.2067H49.0089Z" fill="#9CAFBB"/>
<path d="M51.034 17.9309H46.8961C46.5304 17.9313 46.1799 18.0767 45.9213 18.3353C45.6627 18.5939 45.5173 18.9445 45.5168 19.3102V23.4376C45.6606 23.4439 45.8048 23.4481 45.9496 23.4481H52.4133V19.3102C52.4129 18.9445 52.2675 18.5939 52.0089 18.3353C51.7503 18.0767 51.3997 17.9313 51.034 17.9309Z" fill="#9CAFBB"/>
<path d="M50.7289 66.4717L6.89719 22.64L6.05617 23.4812C4.57398 24.9641 3.61445 26.889 3.32243 28.9652C3.03042 31.0414 3.42176 33.1563 4.43739 34.9906L7.30064 32.1273C7.42879 31.9992 7.58093 31.8975 7.74836 31.8282C7.9158 31.7588 8.09526 31.7231 8.27649 31.7231C8.45772 31.7231 8.63718 31.7588 8.80462 31.8282C8.97206 31.8975 9.1242 31.9992 9.25235 32.1273C9.3805 32.2555 9.48215 32.4076 9.55151 32.575C9.62086 32.7425 9.65656 32.9219 9.65656 33.1032C9.65656 33.2844 9.62086 33.4639 9.55151 33.6313C9.48215 33.7987 9.3805 33.9509 9.25235 34.079L6.12599 37.2054L12.4501 43.5294L15.5764 40.4031C15.8352 40.1443 16.1863 39.9989 16.5523 39.9989C16.9183 39.9989 17.2693 40.1443 17.5281 40.4031C17.7869 40.6619 17.9323 41.0129 17.9323 41.379C17.9323 41.745 17.7869 42.096 17.5281 42.3548L14.4018 45.4812L19.5143 50.5939C19.6421 50.7223 19.7941 50.8242 19.9615 50.8935C20.129 50.9629 20.3085 50.9983 20.4897 50.9978H24.8281C25.9251 50.9991 26.9769 51.4354 27.7526 52.2112C28.5284 52.9869 28.9647 54.0387 28.966 55.1357V59.5466C28.9655 59.7278 29.0009 59.9073 29.0703 60.0747C29.1396 60.2421 29.2415 60.3941 29.3699 60.5219L31.7246 62.8758L34.8866 59.7133C35.1454 59.4545 35.4964 59.3091 35.8625 59.3091C36.2285 59.3091 36.5795 59.4545 36.8383 59.7133C37.0971 59.9721 37.2425 60.3231 37.2425 60.6891C37.2425 61.0551 37.0971 61.4062 36.8383 61.665L33.6758 64.827L40.0004 71.1516L43.1624 67.9891C43.2905 67.8609 43.4427 67.7593 43.6101 67.6899C43.7776 67.6206 43.957 67.5849 44.1382 67.5849C44.3195 67.5849 44.4989 67.6206 44.6664 67.6899C44.8338 67.7593 44.986 67.8609 45.1141 67.9891C45.2423 68.1172 45.3439 68.2694 45.4133 68.4368C45.4826 68.6042 45.5183 68.7837 45.5183 68.9649C45.5183 69.1462 45.4826 69.3256 45.4133 69.493C45.3439 69.6605 45.2423 69.8126 45.1141 69.9408L42.0003 73.0544C45.2223 75.7691 49.303 77.2525 53.5161 77.2407H57.9312V75.8614C57.9312 75.4956 58.0765 75.1448 58.3352 74.8861C58.5939 74.6274 58.9447 74.4821 59.3105 74.4821C59.6763 74.4821 60.0272 74.6274 60.2858 74.8861C60.5445 75.1448 60.6898 75.4956 60.6898 75.8614V77.2407H68.9656V75.8614C68.9656 75.4956 69.1109 75.1448 69.3696 74.8861C69.6283 74.6274 69.9791 74.4821 70.3449 74.4821C70.7107 74.4821 71.0616 74.6274 71.3202 74.8861C71.5789 75.1448 71.7242 75.4956 71.7242 75.8614V77.2407H75.8621C76.9592 77.2395 78.0109 76.8031 78.7867 76.0274C79.5624 75.2516 79.9988 74.1999 80 73.1028V71.7235H63.4079C61.0522 71.73 58.7187 71.2691 56.5423 70.3676C54.366 69.4661 52.39 68.1419 50.7289 66.4717Z" fill="#9CAFBB"/>
<path d="M16.5519 20.6895C16.5577 18.604 15.8831 16.5736 14.6305 14.9062L8.84727 20.6895L14.6305 26.4727C15.8831 24.8053 16.5577 22.7749 16.5519 20.6895Z" fill="#9CAFBB"/>
<path d="M34.7478 27.2809C36.1533 28.694 37.8251 29.8143 39.6665 30.5769C41.5079 31.3396 43.4822 31.7295 45.4753 31.724H48.4235L45.996 26.2068H45.9494C44.3186 26.2112 42.7031 25.8922 41.1965 25.2681C39.6898 24.644 38.3219 23.7273 37.1719 22.571L32.6012 18.0003C31.4449 16.8503 30.5281 15.4823 29.9039 13.9756C29.2798 12.4689 28.9607 10.8533 28.9651 9.22247V3.90131C28.9651 3.6285 28.8842 3.36182 28.7326 3.13498C28.5811 2.90815 28.3657 2.73135 28.1136 2.62696C27.8616 2.52256 27.5842 2.49524 27.3167 2.54847C27.0491 2.60169 26.8033 2.73306 26.6104 2.92597L23.4479 6.08853V9.6966C23.4424 11.6897 23.8323 13.664 24.5949 15.5054C25.3576 17.3467 26.4779 19.0186 27.8909 20.4241L34.7478 27.2809Z" fill="#9CAFBB"/>
<path d="M61.8804 55.4592C62.204 56.1941 62.7343 56.819 63.4068 57.2578C64.0793 57.6966 64.8649 57.9304 65.6679 57.9305H66.8505L63.8161 51.034H59.9333L61.8804 55.4592Z" fill="#9CAFBB"/>
<path d="M73.1023 60.6891H65.6681C64.3297 60.6889 63.0203 60.2994 61.8995 59.568C60.7787 58.8367 59.8948 57.7951 59.3555 56.5702L56.9197 51.034H52.4128C52.047 51.034 51.6962 50.8887 51.4375 50.6301C51.1788 50.3714 51.0335 50.0206 51.0335 49.6547C51.0335 49.2889 51.1788 48.9381 51.4375 48.6794C51.6962 48.4208 52.047 48.2754 52.4128 48.2754H55.7059L54.4921 45.5168H49.6542C49.2884 45.5168 48.9376 45.3715 48.6789 45.1129C48.4202 44.8542 48.2749 44.5034 48.2749 44.1375C48.2749 43.7717 48.4202 43.4209 48.6789 43.1622C48.9376 42.9036 49.2884 42.7582 49.6542 42.7582H53.2783L52.0645 39.9997H46.8956C46.5298 39.9997 46.179 39.8543 45.9203 39.5957C45.6616 39.337 45.5163 38.9862 45.5163 38.6204C45.5163 38.2545 45.6616 37.9037 45.9203 37.645C46.179 37.3864 46.5298 37.2411 46.8956 37.2411H50.8508L49.637 34.4825H45.475C43.1196 34.4887 40.7863 34.0277 38.6102 33.1263C36.4342 32.2249 34.4585 30.9008 32.7975 29.2308L25.9406 22.3739C24.2706 20.713 22.9466 18.7373 22.0451 16.5612C21.1437 14.3851 20.6827 12.0519 20.689 9.69647V8.847L16.5947 12.9413C18.3523 15.1413 19.3097 17.8736 19.3097 20.6895C19.3097 23.5054 18.3523 26.2376 16.5947 28.4377L52.6782 64.5212C54.0838 65.9344 55.7558 67.0548 57.5973 67.8176C59.4389 68.5804 61.4134 68.9703 63.4067 68.9649H79.9988V67.5856C79.9967 65.7572 79.2695 64.0042 77.9766 62.7113C76.6837 61.4184 74.9307 60.6912 73.1023 60.6891Z" fill="#9CAFBB"/>
<path d="M58.7207 48.2754H62.6034L61.3896 45.5168H57.5069L58.7207 48.2754Z" fill="#9CAFBB"/>
<path d="M13.793 55.1719H1.3793C1.01349 55.1719 0.662656 55.0266 0.403987 54.7679C0.145318 54.5093 0 54.1584 0 53.7926C0 53.4268 0.145318 53.076 0.403987 52.8173C0.662656 52.5586 1.01349 52.4133 1.3793 52.4133H13.793C14.1588 52.4133 14.5096 52.5586 14.7683 52.8173C15.027 53.076 15.1723 53.4268 15.1723 53.7926C15.1723 54.1584 15.027 54.5093 14.7683 54.7679C14.5096 55.0266 14.1588 55.1719 13.793 55.1719Z" fill="#9CAFBB"/>
<path d="M30.3446 71.7235H1.3793C1.01349 71.7235 0.662656 71.5782 0.403987 71.3195C0.145318 71.0609 0 70.71 0 70.3442C0 69.9784 0.145318 69.6276 0.403987 69.3689C0.662656 69.1102 1.01349 68.9649 1.3793 68.9649H30.3446C30.7104 68.9649 31.0612 69.1102 31.3199 69.3689C31.5785 69.6276 31.7239 69.9784 31.7239 70.3442C31.7239 70.71 31.5785 71.0609 31.3199 71.3195C31.0612 71.5782 30.7104 71.7235 30.3446 71.7235Z" fill="#9CAFBB"/>
<path d="M22.0688 63.4477H1.3793C1.01349 63.4477 0.662656 63.3024 0.403987 63.0437C0.145318 62.7851 0 62.4342 0 62.0684C0 61.7026 0.145318 61.3518 0.403987 61.0931C0.662656 60.8344 1.01349 60.6891 1.3793 60.6891H22.0688C22.4346 60.6891 22.7854 60.8344 23.0441 61.0931C23.3028 61.3518 23.4481 61.7026 23.4481 62.0684C23.4481 62.4342 23.3028 62.7851 23.0441 63.0437C22.7854 63.3024 22.4346 63.4477 22.0688 63.4477Z" fill="#9CAFBB"/>
</svg>
