<svg width="21" height="22" viewBox="0 0 21 22" fill="none" xmlns="http://www.w3.org/2000/svg">
<path fill-rule="evenodd" clip-rule="evenodd" d="M0.0447335 8.12124C0.00407293 4.40493 -0.0124581 2.89404 1.36982 1.45825C2.82051 -0.0459237 4.40474 -0.0326952 9.95234 0.0136281C11.1011 0.0232202 12.4197 0.0342313 13.9423 0.033483C16.3984 0.0377648 16.5379 0.058017 17.0034 0.12559L17.0301 0.129456C19.1581 0.435699 20.773 1.94772 20.979 4.57128C21.0069 4.92202 21.0069 16.082 20.9798 16.4258C20.7861 18.8888 19.3692 20.3013 17.6277 20.7507C16.3234 21.0883 4.75071 21.0883 3.4446 20.7524C-0.151326 19.8231 -0.0650935 16.2988 0.02987 12.4177C0.045366 11.7844 0.0610945 11.1415 0.0610945 10.499C0.0610945 9.6166 0.0524765 8.82893 0.0447335 8.12124ZM9.76497 2.76855C10.0181 2.77038 10.2731 2.77222 10.5292 2.77222H10.5257C10.8304 2.77222 11.1249 2.77023 11.4099 2.7683C13.8798 2.75163 15.6297 2.73981 16.9595 4.0696C18.2841 5.39344 18.2747 7.11464 18.2607 9.66539C18.2592 9.93552 18.2577 10.2149 18.2577 10.5042C18.2577 10.7717 18.2587 11.0293 18.2596 11.2776C18.2666 13.1415 18.2716 14.4825 17.852 15.5681C16.7908 18.2907 14.0939 18.2662 11.3253 18.241C11.0595 18.2386 10.7932 18.2362 10.5275 18.2362C10.273 18.2362 10.0193 18.238 9.76722 18.2399C6.90454 18.2607 4.25751 18.2801 3.20384 15.5681C2.78503 14.4899 2.7906 12.8866 2.79667 11.1419C2.7974 10.9312 2.79814 10.7184 2.79814 10.5042C2.79814 10.2405 2.7972 9.98612 2.7963 9.74047C2.78946 7.87587 2.78446 6.51561 3.20384 5.43941C4.26002 2.7288 6.88701 2.74777 9.76497 2.76855ZM11.0796 4.15731C10.6899 4.16098 10.2759 4.16488 9.83648 4.16558V4.16383C4.68184 4.16907 4.19324 4.26679 4.19324 10.5007C4.19324 16.6631 4.37036 16.8393 10.5301 16.8393C10.8409 16.8393 11.1464 16.8427 11.4451 16.8459C14.3923 16.8783 16.6719 16.9033 16.8216 13.6259C17.2549 4.09915 16.5508 4.10578 11.0796 4.15731ZM13.7286 6.37646C13.7286 5.86431 14.1439 5.449 14.6561 5.449C15.1682 5.449 15.5835 5.86431 15.5835 6.37646C15.5835 6.88861 15.1682 7.30391 14.6561 7.30391C14.1439 7.30391 13.7286 6.88861 13.7286 6.37646ZM6.55943 10.5042C6.55943 8.31163 8.33668 6.5335 10.5292 6.5335C12.7218 6.5335 14.4982 8.31163 14.4982 10.5042C14.4982 12.6967 12.7218 14.474 10.5292 14.474C8.33668 14.474 6.55943 12.6967 6.55943 10.5042ZM10.5292 7.92687C13.9363 7.92687 13.9407 13.0815 10.5292 13.0815C7.12305 13.0815 7.11782 7.92687 10.5292 7.92687Z" fill="#DAB564"/>
</svg>
