<svg width="18" height="25" viewBox="0 0 18 25" fill="none" xmlns="http://www.w3.org/2000/svg">
<path d="M3.96 9.44C3.96 6.528 6.328 4.16 9.24 4.16C12.152 4.16 14.52 6.528 14.52 9.44C14.52 12.352 12.152 14.72 9.24 14.72H7V17.92H9.24C13.912 17.92 17.72 14.112 17.72 9.44C17.72 4.768 13.912 0.959999 9.24 0.959999C4.568 0.959999 0.76 4.768 0.76 9.44V10.4H3.96V9.44ZM7 22.4C7 23.552 7.928 24.48 9.08 24.48C10.232 24.48 11.16 23.552 11.16 22.4C11.16 21.248 10.232 20.32 9.08 20.32C7.928 20.32 7 21.248 7 22.4Z" fill="white"/>
</svg>
