<svg width="80" height="72" viewBox="0 0 80 72" fill="none" xmlns="http://www.w3.org/2000/svg">
<path d="M32.0005 20.0007L19.0006 33.0006C20.2405 33.4806 21.2406 34.0605 22.0806 34.5606C23.5606 35.4606 24.4606 36.0006 26.6805 36.0006C28.9005 36.0006 29.8005 35.4606 31.2805 34.5807C33.0805 33.5007 35.5605 32.0007 40.0005 32.0007C44.4405 32.0007 46.9206 33.4806 48.7206 34.5807C50.2005 35.4807 51.1005 36.0006 53.3205 36.0006C55.5405 36.0006 56.4405 35.4606 57.9205 34.5807C58.4005 34.2807 58.9405 33.9807 59.5405 33.6606L33.9205 8.00069C27.7004 1.78058 22.0004 -0.0392974 12.0004 0.0006401V10.0006C19.2805 9.96063 23.5405 11.5606 28.0004 16.0006L32.0005 20.0007Z" fill="#9CAFBB"/>
<path d="M75.3601 44.5806C73.5601 43.4805 71.0801 42.0006 66.6401 42.0006C62.2001 42.0006 59.72 43.5006 57.92 44.5806C56.4401 45.4605 55.5401 46.0005 53.3201 46.0005C51.1001 46.0005 50.2001 45.4806 48.7202 44.5806C46.9202 43.4805 44.4401 42.0006 40.0001 42.0006C35.5601 42.0006 33.08 43.5006 31.28 44.5806C29.8001 45.4605 28.9001 46.0005 26.6801 46.0005C24.44 46.0005 23.54 45.4605 22.0601 44.5605C20.2601 43.4805 17.7801 42.0006 13.3401 42.0006C8.90006 42.0006 6.42 43.4805 4.62 44.5605C3.12 45.4605 2.22 46.0005 0 46.0005V54.0005C4.44 54.0005 6.92006 52.5206 8.72006 51.4406C10.2201 50.5406 11.1 50.0006 13.3401 50.0006C15.5801 50.0006 16.4801 50.5406 17.9601 51.4406C19.76 52.5206 22.2401 54.0005 26.6801 54.0005C31.1201 54.0005 33.6002 52.5206 35.4401 51.4206C36.92 50.5406 37.82 50.0006 40.04 50.0006C42.26 50.0006 43.16 50.5206 44.64 51.4206C46.44 52.5206 48.92 54.0005 53.36 54.0005C57.8 54.0005 60.2801 52.5006 62.0801 51.4206C63.56 50.5406 64.46 50.0006 66.68 50.0006C68.9 50.0006 69.8 50.5406 71.28 51.4206C73.0799 52.5206 75.56 54.0005 80 54.0005V46.0005C77.7802 46.0005 76.8802 45.4605 75.3601 44.5806Z" fill="#9CAFBB"/>
<path d="M66.6401 60.0006C62.2001 60.0006 59.72 61.5006 57.92 62.5806C56.4401 63.4605 55.5401 64.0005 53.3201 64.0005C51.1001 64.0005 50.2001 63.4806 48.7202 62.5806C46.9202 61.4805 44.4401 60.0006 40.0001 60.0006C35.5601 60.0006 33.08 61.5006 31.28 62.5806C29.8001 63.4605 28.9001 64.0005 26.6801 64.0005C24.44 64.0005 23.54 63.4605 22.0601 62.5605C20.2601 61.4805 17.7801 60.0006 13.3401 60.0006C8.90006 60.0006 6.42 61.4805 4.62 62.5605C3.12 63.4605 2.22 64.0005 0 64.0005V72.0006C4.44 72.0006 6.92006 70.5206 8.72006 69.4406C10.2201 68.5406 11.1 68.0006 13.3401 68.0006C15.5801 68.0006 16.4801 68.5406 17.9601 69.4406C19.76 70.5206 22.2401 72.0006 26.6801 72.0006C31.1201 72.0006 33.6002 70.5206 35.4401 69.4206C36.92 68.5406 37.82 68.0006 40.04 68.0006C42.26 68.0006 43.16 68.5206 44.64 69.4206C46.44 70.5206 48.92 72.0006 53.36 72.0006C57.8 72.0006 60.2801 70.5006 62.0801 69.4206C63.56 68.5406 64.46 68.0006 66.68 68.0006C68.9 68.0006 69.8 68.5406 71.28 69.4206C73.0799 70.5206 75.56 72.0006 80 72.0006V64.0005C77.78 64.0005 76.88 63.4605 75.3599 62.5806C73.5601 61.4805 71.0801 60.0006 66.6401 60.0006Z" fill="#9CAFBB"/>
<path d="M58.0008 20.0005C63.5236 20.0005 68.0007 15.5234 68.0007 10.0006C68.0007 4.47776 63.5236 0.00063928 58.0008 0.00063928C52.478 0.00063928 48.0008 4.47776 48.0008 10.0006C48.0008 15.5234 52.478 20.0005 58.0008 20.0005Z" fill="#9CAFBB"/>
</svg>
