<svg width="25" height="43" viewBox="0 0 25 43" fill="none" xmlns="http://www.w3.org/2000/svg">
<path d="M8.48 23.64H12.68C16.208 23.64 19.12 26.552 19.12 30.08C19.12 33.608 16.208 36.52 12.68 36.52C9.152 36.52 6.24 33.608 6.24 30.08V28.4H0.64V30.08C0.64 36.744 6.016 42.12 12.68 42.12C19.344 42.12 24.72 36.744 24.72 30.08C24.72 26.328 22.984 22.912 20.24 20.728C22.648 18.656 24.16 15.576 24.16 12.16C24.16 5.832 19.008 0.679998 12.68 0.679998C6.352 0.679998 1.2 5.832 1.2 12.16V13.28H6.8V12.16C6.8 8.912 9.432 6.28 12.68 6.28C15.928 6.28 18.56 8.912 18.56 12.16C18.56 15.408 15.928 18.04 12.68 18.04H8.48V23.64Z" fill="#DAB564"/>
</svg>
