<svg width="24" height="24" viewBox="0 0 24 24" fill="none" xmlns="http://www.w3.org/2000/svg">
<path fill-rule="evenodd" clip-rule="evenodd" d="M24 12C24 18.6274 18.6274 24 12 24C5.37258 24 0 18.6274 0 12C0 5.37258 5.37258 0 12 0C18.6274 0 24 5.37258 24 12ZM17.0611 7.279L5.49106 11.74C4.69806 12.05 4.71206 12.489 5.35506 12.693L8.31706 13.617L15.1881 9.291C15.5071 9.079 15.8031 9.199 15.5611 9.412L10.0011 14.435L9.78806 17.488C10.0981 17.488 10.2331 17.353 10.3931 17.193L11.8401 15.799L14.8401 18.01C15.3871 18.32 15.7781 18.16 15.9241 17.502L17.8941 8.221L17.8931 8.222C18.0671 7.41 17.5981 7.085 17.0611 7.279Z" fill="#07569E"/>
</svg>
